<svg xmlns="http://www.w3.org/2000/svg" width="16" height="16" viewBox="0 0 16 16">
  <defs>
    <style>
      .cls-1 {
        opacity: 0.12;
      }

      .cls-2 {
        fill: #5f5f5f;
        opacity: 0;
      }

      .cls-3 {
        fill: #fff;
      }
    </style>
  </defs>
  <g id="组_30023" data-name="组 30023" transform="translate(-357.924 -94.359)">
    <g id="组_30021" data-name="组 30021" class="cls-1" transform="translate(357.924 94.359)">
      <g id="组_30020" data-name="组 30020">
        <g id="组_30019" data-name="组 30019">
          <g id="组_30018" data-name="组 30018">
            <rect id="矩形_17236" data-name="矩形 17236" class="cls-2" width="16" height="16"/>
          </g>
        </g>
      </g>
    </g>
    <g id="组_30022" data-name="组 30022" transform="translate(359.257 95.064)">
      <path id="路径_20752" data-name="路径 20752" class="cls-3" d="M372.48,97.771h-.517a.444.444,0,0,0-.444.444v.579a.444.444,0,0,1-.444.444h-6.812a.444.444,0,0,1-.444-.444v-.579a.444.444,0,0,0-.444-.444H362.7a1.778,1.778,0,0,0-1.778,1.778v10.222a1.778,1.778,0,0,0,1.778,1.778h9.778a1.778,1.778,0,0,0,1.778-1.778V99.549A1.778,1.778,0,0,0,372.48,97.771Zm-.864,8.824h-8.051a.433.433,0,1,1,0-.865h8.051a.433.433,0,1,1,0,.865Zm0-3.494h-8.051a.433.433,0,1,1,0-.865h8.051a.433.433,0,1,1,0,.865Z" transform="translate(-360.924 -96.96)"/>
      <rect id="矩形_17237" data-name="矩形 17237" class="cls-3" width="5.97" height="1.413" rx="0.707" transform="translate(3.758 0)"/>
    </g>
  </g>
</svg>
