<svg xmlns="http://www.w3.org/2000/svg" width="26" height="26" viewBox="0 0 26 26">
  <defs>
    <style>
      .cls-1 {
        opacity: 0;
      }

      .cls-2 {
        fill: #262626;
        stroke: #f1f1f1;
        stroke-miterlimit: 10;
      }

      .cls-3, .cls-4, .cls-5 {
        fill: #ffa759;
      }

      .cls-3 {
        opacity: 0.3;
      }

      .cls-4, .cls-5 {
        stroke: #ffa759;
        stroke-width: 0.9px;
      }

      .cls-5 {
        opacity: 0.6;
      }

      .cls-6 {
        fill: #595959;
      }

      .cls-7 {
        stroke: none;
      }

      .cls-8 {
        fill: none;
      }
    </style>
  </defs>
  <g id="组_4854" data-name="组 4854" transform="translate(-192.142 -506.142)">
    <g id="组_4849" data-name="组 4849" class="cls-1" transform="translate(193 507)">
      <g id="矩形_6609" data-name="矩形 6609" class="cls-2" transform="translate(0.142 0.142)">
        <rect class="cls-7" width="24" height="24"/>
        <rect class="cls-8" x="-0.5" y="-0.5" width="25" height="25"/>
      </g>
    </g>
    <circle id="椭圆_1032" data-name="椭圆 1032" class="cls-3" cx="3.5" cy="3.5" r="3.5" transform="translate(202.142 515.142)"/>
    <g id="组_4829" data-name="组 4829" transform="translate(199.898 515.279)">
      <path id="路径_6284" data-name="路径 6284" class="cls-4" d="M265.154,1527.151a3.422,3.422,0,1,1,3.422-3.422A3.426,3.426,0,0,1,265.154,1527.151Zm0-6.119a2.7,2.7,0,1,0,2.7,2.7A2.7,2.7,0,0,0,265.154,1521.032Z" transform="translate(-259.516 -1520.306)"/>
      <path id="减去_51" data-name="减去 51" class="cls-5" d="M.783,3.991H0A6.093,6.093,0,0,1,5.179,0h.015A7.366,7.366,0,0,1,8.018.5a3.275,3.275,0,0,1,.427.207c.04.022.066.037.1.052a6.175,6.175,0,0,1,2.734,3.228h-.782A5.358,5.358,0,0,0,8.2,1.4c-.024-.012-.062-.032-.1-.052a2.635,2.635,0,0,0-.359-.176A6.623,6.623,0,0,0,5.211.725,5.307,5.307,0,0,0,.783,3.991Z" transform="translate(0 6.121)"/>
    </g>
    <path id="路径_6290" data-name="路径 6290" class="cls-6" d="M877.792,2173.907h0m4.118.41.284,1.278a1.4,1.4,0,0,0,.823.985,8.4,8.4,0,0,1,1.852,1.087,1.391,1.391,0,0,0,1.262.228l1.257-.387,2.106,3.648-.973.892a1.4,1.4,0,0,0-.442,1.2,7.492,7.492,0,0,1-.006,2.145,1.4,1.4,0,0,0,.434,1.2l.962.895-2.106,3.648-1.262-.4a1.378,1.378,0,0,0-.42-.065,1.4,1.4,0,0,0-.845.285,8.354,8.354,0,0,1-1.856,1.076,1.4,1.4,0,0,0-.827.979l-.291,1.271h-4.212l-.283-1.278a1.4,1.4,0,0,0-.823-.985,8.345,8.345,0,0,1-1.852-1.087,1.394,1.394,0,0,0-.851-.289,1.409,1.409,0,0,0-.41.062l-1.257.387-2.106-3.648.973-.892a1.4,1.4,0,0,0,.443-1.2,7.426,7.426,0,0,1,.006-2.145,1.4,1.4,0,0,0-.434-1.2l-.963-.894,2.106-3.648,1.262.4a1.4,1.4,0,0,0,1.265-.221,8.374,8.374,0,0,1,1.856-1.075,1.4,1.4,0,0,0,.827-.979l.291-1.271h4.212m-9.5,2.781h0m15.382.287h0m-5.456-4.463h-5.058a.868.868,0,0,0-.846.674l-.385,1.682a9.749,9.749,0,0,0-2.168,1.254l-1.667-.525a.866.866,0,0,0-1.012.394l-2.529,4.379a.867.867,0,0,0,.161,1.07l1.271,1.181a8.824,8.824,0,0,0-.008,2.5l-1.286,1.179a.868.868,0,0,0-.165,1.074l2.528,4.38a.867.867,0,0,0,1.007.4l1.66-.51a9.763,9.763,0,0,0,2.163,1.267l.375,1.692a.868.868,0,0,0,.848.68h5.057a.868.868,0,0,0,.846-.675l.385-1.681a9.777,9.777,0,0,0,2.168-1.255l1.667.526a.871.871,0,0,0,1.012-.394l2.529-4.38a.868.868,0,0,0-.161-1.07l-1.271-1.181a9.84,9.84,0,0,0,.092-1.274,9.728,9.728,0,0,0-.085-1.226l1.286-1.179a.868.868,0,0,0,.165-1.074l-2.529-4.38a.867.867,0,0,0-1.007-.4l-1.66.511a9.739,9.739,0,0,0-2.162-1.268l-.376-1.692a.867.867,0,0,0-.847-.68Z" transform="translate(-674.178 -1665.546)"/>
  </g>
</svg>
