<svg xmlns="http://www.w3.org/2000/svg" width="24" height="24" viewBox="0 0 24 24">
  <defs>
    <style>
      .cls-1 {
        fill: none;
      }

      .cls-2 {
        fill: #595959;
      }

      .cls-3, .cls-4 {
        fill: #ffa759;
      }

      .cls-3 {
        opacity: 0.6;
      }
    </style>
  </defs>
  <g id="组_2340" data-name="组 2340" transform="translate(-560.156 -3313.284)">
    <rect id="矩形_3174" data-name="矩形 3174" class="cls-1" width="24" height="24" transform="translate(560.156 3313.284)"/>
    <g id="组_2339" data-name="组 2339" transform="translate(561.258 3316.163)">
      <path id="路径_10190" data-name="路径 10190" class="cls-2" d="M577.579,3332.307a.674.674,0,0,1-.674-.674v-12.115a.674.674,0,0,1,1.347,0v12.115A.674.674,0,0,1,577.579,3332.307Z" transform="translate(-566.806 -3318.06)"/>
      <g id="组_4855" data-name="组 4855" transform="translate(0)">
        <path id="路径_10189" data-name="路径 10189" class="cls-2" d="M581.168,3319.026a.949.949,0,0,1,.943.943v12.144a.943.943,0,0,1-.943.943H574.2a1.347,1.347,0,0,0-.992.435l-.586.637-.585-.637a1.347,1.347,0,0,0-.992-.435H564.2a.943.943,0,0,1-.943-.943h0v-12.144a.949.949,0,0,1,.943-.943h7.178l.245.27a1.347,1.347,0,0,0,1.9.08c.028-.026.054-.052.08-.08l.247-.27h7.312m0-1.347h-7.9l-.647.7-.647-.7H564.2a2.29,2.29,0,0,0-2.29,2.291h0v12.144a2.29,2.29,0,0,0,2.29,2.29h6.839l.869.943a.961.961,0,0,0,1.357.059q.03-.028.059-.059l.869-.943h6.972a2.29,2.29,0,0,0,2.29-2.29h0v-12.144a2.29,2.29,0,0,0-2.29-2.291Z" transform="translate(-561.913 -3317.679)"/>
        <path id="路径_10193" data-name="路径 10193" class="cls-3" d="M586.787,3325.958h-4.581a.674.674,0,1,1,0-1.347h4.581a.674.674,0,0,1,0,1.347Z" transform="translate(-568.316 -3319.941)"/>
        <path id="路径_10194" data-name="路径 10194" class="cls-4" d="M586.787,3331.3h-4.581a.674.674,0,0,1,0-1.347h4.581a.674.674,0,0,1,0,1.347Z" transform="translate(-568.316 -3321.684)"/>
        <rect id="矩形_6655" data-name="矩形 6655" class="cls-3" width="6" height="6" rx="1" transform="translate(2.898 4.121)"/>
      </g>
    </g>
  </g>
</svg>
