<svg xmlns="http://www.w3.org/2000/svg" width="12" height="12" viewBox="0 0 12 12">
  <defs>
    <style>
      .cls-1 {
        fill: rgba(255,116,116,0);
      }

      .cls-2 {
        fill: #fff;
      }
    </style>
  </defs>
  <g id="组_30015" data-name="组 30015" transform="translate(-84.644 -2.486)">
    <rect id="矩形_16988" data-name="矩形 16988" class="cls-1" width="12" height="12" transform="translate(84.644 2.487)"/>
    <g id="组_30014" data-name="组 30014" transform="translate(85.385 2.486)">
      <path id="路径_20751" data-name="路径 20751" class="cls-2" d="M96.129,7.388,87.706,2.626a1.088,1.088,0,0,0-1.052-.008,1,1,0,0,0-.529.87v9.525a1,1,0,0,0,.529.87,1.091,1.091,0,0,0,1.052-.008l1.106-.625a3.925,3.925,0,0,1-.6-2.085h0a3.948,3.948,0,0,1,7.465-1.8l.452-.255a.987.987,0,0,0,.513-.864v0A.985.985,0,0,0,96.129,7.388Z" transform="translate(-86.125 -2.486)"/>
      <path id="路径_20750" data-name="路径 20750" class="cls-2" d="M98.085,17.5a3.306,3.306,0,0,1-6.458-.593h1.134a.475.475,0,0,0,.33-.135l1.011-.989,1.177,1.01a.472.472,0,0,0,.615-.717l-1.5-1.291a.472.472,0,0,0-.637.021l-1.184,1.157h-.908a3.306,3.306,0,0,1,6.558.644.466.466,0,0,0-.2-.046h-1.34a.474.474,0,0,0-.32.124l-.98.9-1.1-.915a.472.472,0,0,0-.623.71l.021.018,1.419,1.177a.472.472,0,0,0,.621-.015l1.15-1.053h1.156a.528.528,0,0,0,.069,0Z" transform="translate(-88.876 -7.867)"/>
    </g>
  </g>
</svg>
